<svg xmlns="http://www.w3.org/2000/svg" viewBox="0 0 450.3 465.94"><defs><style>.cls-1{fill:#fff;}</style></defs><title>icons-Asset 5</title><g id="Layer_2" data-name="Layer 2"><g id="Layer_1-2" data-name="Layer 1"><path class="cls-1" d="M450.3,412.92v2a51.13,51.13,0,0,1-51,51h-5.78a89,89,0,0,0-177.92,0H51A51.13,51.13,0,0,1,0,415v-2a51.13,51.13,0,0,1,49.81-51V218.25A176.21,176.21,0,0,1,171,51.51c0-.17,0-.34,0-.5a54.2,54.2,0,0,1,108.21,0c0,.16,0,.33,0,.5,70.16,22.94,121.21,89.17,121.21,166.74V362A51.13,51.13,0,0,1,450.3,412.92Z"/></g></g></svg>