<svg xmlns="http://www.w3.org/2000/svg" viewBox="0 0 361.71 385.49"><defs><style>.cls-1{fill:#fff;}</style></defs><title>icons-Asset 6</title><g id="Layer_2" data-name="Layer 2"><g id="Layer_1-2" data-name="Layer 1"><path class="cls-1" d="M360.37,258.31A184.77,184.77,0,0,1,185.06,385.49c-69.74,0-136.6-39.63-167.87-106.92-42.93-92.4-2.67-202.5,89.74-245.43A185.25,185.25,0,0,1,260.13,32a26.68,26.68,0,0,1,52.12-11.41L329.2,93.31a26.67,26.67,0,0,1-26,32.74H225.59a26.68,26.68,0,0,1-7.33-52.34,131.54,131.54,0,0,0-88.85,7.83C63.7,112.08,35.07,190.38,65.6,256.09s108.83,94.34,174.54,63.81a130.15,130.15,0,0,0,69.51-78.24,26.69,26.69,0,1,1,50.72,16.65Z"/></g></g></svg>