<svg xmlns="http://www.w3.org/2000/svg" viewBox="0 0 400.32 372.27"><defs><style>.cls-1{fill:#fff;}</style></defs><title>icons-Asset 7</title><g id="Layer_2" data-name="Layer 2"><g id="Layer_1-2" data-name="Layer 1"><path class="cls-1" d="M399.7,21.86A24.3,24.3,0,0,0,376.41.16C286.65-3,236.82,41.28,210.75,79c-3.94,5.71-7.45,11.43-10.56,17-3.14-5.6-6.65-11.32-10.59-17C163.52,41.28,113.69-3,23.94.16A24.33,24.33,0,0,0,.62,21.86c-.37,3.51-8.39,85.88,46,136.15,26.14,24.15,61.19,36.27,104.62,36.27q7.36,0,15.07-.47V372.27H234V193.77c5.13.36,10.19.51,15.11.51,43.4,0,78.47-12.12,104.62-36.27C408.12,107.74,400.06,25.37,399.7,21.86ZM79.81,122.5c-22.6-20.72-29.07-52.11-30.7-73.19,76.88,7,108.38,62.63,120.38,95.57C129.93,148.39,99.84,140.9,79.81,122.5Zm240.73,0c-20,18.37-50.09,25.85-89.54,22.42a171.8,171.8,0,0,1,19.67-38.33c23.76-34.32,57.5-53.52,100.57-57.32C349.58,70.39,343.1,101.78,320.54,122.5Z"/></g></g></svg>